<svg width="824" height="161" viewBox="0 0 824 161" fill="none" xmlns="http://www.w3.org/2000/svg">
<path fill-rule="evenodd" clip-rule="evenodd" d="M0 57.3956C0 49.1241 6.70527 42.4188 14.9768 42.4188C16.2252 42.4188 17.4186 42.6163 18.5779 42.904C22.4861 38.6837 28.0269 36.0001 34.2323 36.0001C46.0488 36.0001 55.6277 45.5791 55.6277 57.3956H0Z" fill="#83D8FF"/>
<path fill-rule="evenodd" clip-rule="evenodd" d="M787.151 14.3867C787.151 8.98657 791.529 4.60852 796.929 4.60852C797.744 4.60852 798.523 4.73733 799.28 4.92517C801.831 2.17008 805.449 0.417725 809.501 0.417725C817.216 0.417725 823.469 6.67185 823.469 14.3861H787.151V14.3867Z" fill="#83D8FF"/>
<path fill-rule="evenodd" clip-rule="evenodd" d="M511.017 147.08C509.588 147.08 508.238 147.361 506.943 147.769C502.843 141.875 496.042 138 488.318 138C480.594 138 473.793 141.875 469.693 147.769C468.399 147.361 467.048 147.08 465.619 147.08C458.097 147.08 452 153.177 452 160.699H524.637C524.637 153.177 518.539 147.08 511.017 147.08Z" fill="#83D8FF"/>
</svg>
