<svg width="512" height="512" viewBox="0 0 512 512" fill="none" xmlns="http://www.w3.org/2000/svg">
<g clip-path="url(#clip0)">
<path d="M231.728 241H380.547L249.321 153.52C246.86 151.879 243.96 151 241.001 151H211.001C205.815 151 200.981 153.695 198.228 158.119C195.503 162.543 195.269 168.065 197.583 172.709L231.728 241Z" fill="#66CCFF"/>
<path d="M509.87 271C503.161 245.193 479.868 226 452 226H113.348L54.6959 170.146C51.9129 167.48 48.192 166 44.354 166H14.999C9.75503 166 4.92104 168.725 2.19604 173.207C-0.528951 177.675 -0.733951 183.241 1.66904 187.899L44.686 271L55.3699 291.64C63.1039 306.669 78.4269 316 95.3599 316H482C498.553 316 512 302.538 512 286C512 280.791 511.124 275.823 509.87 271Z" fill="#EDF1F9"/>
<path d="M95.36 316H482.001C498.554 316 512.001 302.538 512.001 286C512.001 280.791 511.126 275.823 509.871 271H44.686L55.37 291.64C63.104 306.669 78.427 316 95.36 316V316Z" fill="#D8E0F0"/>
<path d="M175.727 421H151C145.316 421 140.131 417.792 137.582 412.709C135.033 407.626 135.59 401.547 138.988 397.006L206.488 307.006C209.33 303.227 213.783 301 218.5 301H288.227C294.584 301 300.268 305.028 302.377 311.034C304.486 317.04 302.582 323.734 297.602 327.719L185.102 417.719C182.436 419.843 179.125 421 175.727 421V421Z" fill="#59ABFF"/>
</g>
<defs>
<clipPath id="clip0">
<rect width="512" height="512" fill="white"/>
</clipPath>
</defs>
</svg>
